<?xml version="1.0" ?><svg xmlns="http://www.w3.org/2000/svg" viewBox="0 0 64 64"><defs><style>.cls-1{fill:#ef1620;}.cls-2{fill:#ff0;}</style></defs><title/><g id="China"><circle class="cls-1" cx="32" cy="32" r="24"/><polygon class="cls-2" points="22 22.29 24.18 29 31.23 29 25.53 33.15 27.71 39.85 22 35.71 16.29 39.85 18.47 33.15 12.77 29 19.82 29 22 22.29"/><polygon class="cls-2" points="35 16.22 35.71 18.4 38 18.4 36.15 19.75 36.85 21.93 35 20.58 33.15 21.93 33.85 19.75 32 18.4 34.29 18.4 35 16.22"/><polygon class="cls-2" points="35 41.82 35.71 44 38 44 36.15 45.35 36.85 47.53 35 46.18 33.15 47.53 33.85 45.35 32 44 34.29 44 35 41.82"/><polygon class="cls-2" points="44 33.82 44.71 36 47 36 45.15 37.35 45.85 39.53 44 38.18 42.15 39.53 42.85 37.35 41 36 43.29 36 44 33.82"/><polygon class="cls-2" points="44 23.82 44.71 26 47 26 45.15 27.35 45.85 29.53 44 28.18 42.15 29.53 42.85 27.35 41 26 43.29 26 44 23.82"/></g></svg>