<?xml version="1.0" encoding="UTF-8"?>
<!DOCTYPE svg PUBLIC "-//W3C//DTD SVG 1.0//EN" "http://www.w3.org/TR/2001/REC-SVG-20010904/DTD/svg10.dtd">
<!-- Creator: CorelDRAW -->
<svg xmlns="http://www.w3.org/2000/svg" xml:space="preserve" width="12.8mm" height="12.8mm" version="1.0" shape-rendering="geometricPrecision" text-rendering="geometricPrecision" image-rendering="optimizeQuality" fill-rule="evenodd" clip-rule="evenodd"
viewBox="0 0 1280 1280"
 xmlns:xlink="http://www.w3.org/1999/xlink"
 xmlns:xodm="http://www.corel.com/coreldraw/odm/2003">
 <g id="圖層_x0020_1">
  <metadata id="CorelCorpID_0Corel-Layer"/>
  <g id="_1935113848032">
   <g id="China">
    <circle fill="#EF1620" fill-rule="nonzero" cx="636.53" cy="643.47" r="635"/>
    <polygon fill="yellow" fill-rule="nonzero" points="371.95,386.56 429.63,564.09 616.16,564.09 465.34,673.9 523.02,851.17 371.95,741.63 220.87,851.17 278.55,673.9 127.74,564.09 314.27,564.09 "/>
    <polygon fill="yellow" fill-rule="nonzero" points="715.91,225.96 734.69,283.64 795.28,283.64 746.33,319.36 764.85,377.03 715.91,341.32 666.96,377.03 685.48,319.36 636.53,283.64 697.12,283.64 "/>
    <polygon fill="yellow" fill-rule="nonzero" points="715.91,903.29 734.69,960.97 795.28,960.97 746.33,996.69 764.85,1054.37 715.91,1018.65 666.96,1054.37 685.48,996.69 636.53,960.97 697.12,960.97 "/>
    <polygon fill="yellow" fill-rule="nonzero" points="954.03,691.62 972.82,749.3 1033.41,749.3 984.46,785.02 1002.98,842.7 954.03,806.98 905.08,842.7 923.6,785.02 874.66,749.3 935.24,749.3 "/>
    <polygon fill="yellow" fill-rule="nonzero" points="954.03,427.04 972.82,484.72 1033.41,484.72 984.46,520.44 1002.98,578.12 954.03,542.4 905.08,578.12 923.6,520.44 874.66,484.72 935.24,484.72 "/>
   </g>
  </g>
 </g>
</svg>
